<svg width="256" height="256" viewBox="0 0 1024 1024" version="1.1" xmlns="http://www.w3.org/2000/svg"><path d="M278.556 590.902l27.59-28.962 233.39 222.332-27.59 28.962zM828.66 433.81l-39.49-6.35 3.18-19.75c7.81-48.57-9.75-96.69-46.97-128.74-28.4-24.45-64.61-36.37-101.98-33.58-37.36 2.79-71.4 19.97-95.85 48.37l-0.77 0.89-34.94 32.09-34.94-32.09-0.77-0.89c-24.45-28.4-58.49-45.57-95.85-48.37-37.36-2.79-73.58 9.13-101.98 33.58-37.23 32.05-54.79 80.18-46.98 128.74l3.18 19.75-39.49 6.35-3.18-19.75c-4.8-29.86-2-60.7 8.1-89.19 10.43-29.4 28.5-55.75 52.27-76.21 36.49-31.42 83.03-46.74 131.06-43.15 47.62 3.56 91.03 25.3 122.39 61.25l6.19 5.68 6.19-5.68c31.36-35.95 74.77-57.69 122.39-61.25 48.02-3.59 94.56 11.73 131.06 43.15 23.77 20.46 41.84 46.81 52.27 76.21 10.1 28.49 12.91 59.33 8.1 89.19l-3.18 19.75z" fill="#666666" /><path d="M484.137 784.34l233.39-222.334 27.59 28.962-233.39 222.333z" fill="#666666" /><path d="M522.71 636.63l-78.74-195.97-70.36 78.52h-202.1v-40h184.24L457.1 366.07l80.14 199.44 76.7-76.72h246.44v40H630.51l-107.8 107.84z" fill="#F7931E" /></svg>
